<?xml version="1.0" encoding="iso-8859-1"?>
<!-- Generator: Adobe Illustrator 22.1.0, SVG Export Plug-In . SVG Version: 6.00 Build 0)  -->
<svg version="1.1" id="Layer_1" xmlns="http://www.w3.org/2000/svg" xmlns:xlink="http://www.w3.org/1999/xlink" x="0px" y="0px"
	 viewBox="0 0 266.88 211.92" style="enable-background:new 0 0 266.88 211.92;" xml:space="preserve">
<g>
	<g>
		<defs>
			<rect id="SVGID_1_" width="266.88" height="211.92"/>
		</defs>
		<clipPath id="SVGID_2_">
			<use xlink:href="#SVGID_1_"  style="overflow:visible;"/>
		</clipPath>
		<path style="clip-path:url(#SVGID_2_);" d="M236.082,210.958H30.848C13.836,210.958,0,197.122,0,180.111V55.001
			C0,37.99,13.836,24.154,30.848,24.154h41.879l3.664-12.364c1.496-6.769,7.683-11.734,14.957-11.734h84.238
			c7.07,0,13.328,4.941,14.984,11.793l0.098,0.422l3.34,11.883h42.078c17.012,0,30.848,13.836,30.848,30.847v125.11
			C266.93,197.122,253.09,210.958,236.082,210.958L236.082,210.958z M30.848,34.439c-11.34,0-20.567,9.222-20.567,20.562v125.11
			c0,11.343,9.227,20.566,20.567,20.566h205.234c11.34,0,20.563-9.226,20.563-20.566V55.001c0-11.34-9.223-20.562-20.563-20.562
			h-49.863l-5.629-20.078c-0.52-2.336-2.621-4.028-5.008-4.028H91.344c-2.422,0-4.481,1.657-5.008,4.032l-5.945,20.074H30.848z
			 M133.473,179.88c-35.985,0-65.262-29.269-65.262-65.25c0-35.984,29.277-65.258,65.262-65.258
			c35.976,0,65.246,29.278,65.246,65.258C198.719,150.603,169.445,179.88,133.473,179.88L133.473,179.88z M133.473,59.65
			c-30.313,0-54.977,24.66-54.977,54.972c0,30.317,24.664,54.969,54.977,54.969c30.308,0,54.961-24.66,54.961-54.969
			C188.434,84.31,163.777,59.65,133.473,59.65L133.473,59.65z M229.441,53.521c-5.242,0-9.484,4.254-9.484,9.488
			c0,5.238,4.242,9.484,9.484,9.484c5.243,0,9.485-4.246,9.485-9.484C238.918,57.775,234.676,53.521,229.441,53.521L229.441,53.521z
			 M229.441,53.521"/>
	</g>
</g>
</svg>
