<?xml version="1.0" encoding="utf-8"?>
<!-- Generator: Adobe Illustrator 22.1.0, SVG Export Plug-In . SVG Version: 6.00 Build 0)  -->
<svg version="1.2" baseProfile="tiny" id="Layer_1" xmlns="http://www.w3.org/2000/svg" xmlns:xlink="http://www.w3.org/1999/xlink"
	 x="0px" y="0px" viewBox="0 0 78.199 78.199" xml:space="preserve">
<g>
	<path fill-rule="evenodd" d="M39.137,32.406c3.734-0.015,6.707-3.011,6.695-6.754c-0.016-3.746-2.996-6.722-6.73-6.726
		c-3.766-0.004-6.774,3.031-6.747,6.808C32.383,29.461,35.391,32.418,39.137,32.406L39.137,32.406z M39.137,32.406"/>
	<path fill-rule="evenodd" d="M39.102,0C17.504,0,0,17.508,0,39.102c0,21.593,17.504,39.097,39.102,39.097
		c21.593,0,39.097-17.504,39.097-39.097C78.199,17.508,60.695,0,39.102,0L39.102,0z M39.156,11.891
		c7.617,0.019,13.727,6.25,13.688,13.949c-0.035,7.523-6.25,13.621-13.852,13.594c-7.527-0.024-13.699-6.266-13.652-13.801
		C25.379,18.012,31.555,11.871,39.156,11.891L39.156,11.891z M54.582,44.844c-1.684,1.73-3.711,2.98-5.965,3.855
		c-2.125,0.824-4.457,1.239-6.765,1.516c0.347,0.379,0.511,0.566,0.73,0.785c3.133,3.148,6.281,6.281,9.402,9.441
		c1.063,1.075,1.286,2.411,0.7,3.661c-0.641,1.367-2.075,2.269-3.481,2.171c-0.891-0.062-1.586-0.503-2.203-1.125
		c-2.363-2.378-4.773-4.718-7.09-7.14c-0.676-0.707-1-0.57-1.594,0.039c-2.378,2.449-4.796,4.863-7.226,7.258
		c-1.094,1.078-2.391,1.273-3.66,0.656c-1.344-0.652-2.203-2.023-2.137-3.406c0.047-0.934,0.508-1.649,1.148-2.289
		c3.102-3.094,6.192-6.2,9.286-9.301c0.207-0.207,0.398-0.426,0.695-0.746c-4.219-0.438-8.024-1.477-11.281-4.024
		c-0.403-0.316-0.821-0.625-1.188-0.976c-1.426-1.371-1.57-2.938-0.441-4.555c0.965-1.383,2.582-1.75,4.265-0.957
		c0.328,0.152,0.637,0.348,0.938,0.551c6.066,4.172,14.406,4.285,20.496,0.187c0.605-0.461,1.25-0.84,1.996-1.031
		c1.457-0.375,2.813,0.16,3.59,1.434C55.691,42.301,55.68,43.719,54.582,44.844L54.582,44.844z M54.582,44.844"/>
</g>
</svg>
