<?xml version="1.0" encoding="utf-8"?>
<!-- Generator: Adobe Illustrator 22.1.0, SVG Export Plug-In . SVG Version: 6.00 Build 0)  -->
<svg version="1.2" baseProfile="tiny" id="Слой_1"
	 xmlns="http://www.w3.org/2000/svg" xmlns:xlink="http://www.w3.org/1999/xlink" x="0px" y="0px" viewBox="0 0 89.758 89.758"
	 xml:space="preserve">
<g>
	<path fill="#00B5F6" d="M89.758,44.879c0,24.785-20.094,44.879-44.879,44.879S0,69.664,0,44.879C0,20.094,20.094,0,44.879,0
		S89.758,20.094,89.758,44.879L89.758,44.879z M89.758,44.879"/>
	<path fill="#FFFFFF" d="M69.25,47.961v16.699h-9.679V49.082c0-3.913-1.396-6.585-4.904-6.585c-2.672,0-4.261,1.801-4.963,3.543
		c-0.257,0.62-0.32,1.484-0.32,2.358v16.261h-9.684c0,0,0.131-26.385,0-29.117h9.684v4.128c-0.018,0.032-0.046,0.063-0.064,0.095
		h0.064V39.67c1.287-1.981,3.582-4.812,8.725-4.812C64.477,34.858,69.25,39.021,69.25,47.961L69.25,47.961z M29.576,21.509
		c-3.314,0-5.479,2.175-5.479,5.03c0,2.796,2.101,5.03,5.351,5.03h0.06c3.378,0,5.479-2.234,5.479-5.03
		C34.923,23.684,32.886,21.509,29.576,21.509L29.576,21.509z M24.672,64.659h9.677V35.542h-9.677V64.659z M22.293,66.992"/>
</g>
</svg>
