<?xml version="1.0" encoding="UTF-8" standalone="no"?>
<!-- Generator: Adobe Illustrator 22.1.0, SVG Export Plug-In . SVG Version: 6.00 Build 0)  -->

<svg
   xmlns:dc="http://purl.org/dc/elements/1.1/"
   xmlns:cc="http://creativecommons.org/ns#"
   xmlns:rdf="http://www.w3.org/1999/02/22-rdf-syntax-ns#"
   xmlns:svg="http://www.w3.org/2000/svg"
   xmlns="http://www.w3.org/2000/svg"
   xmlns:sodipodi="http://sodipodi.sourceforge.net/DTD/sodipodi-0.dtd"
   xmlns:inkscape="http://www.inkscape.org/namespaces/inkscape"
   version="1.1"
   id="Capa_1"
   x="0px"
   y="0px"
   viewBox="46.997 141 18.000001 28"
   xml:space="preserve"
   sodipodi:docname="icon-social-4.svg"
   width="18"
   height="28"
   inkscape:version="0.92.1 r15371"><metadata
     id="metadata13"><rdf:RDF><cc:Work
         rdf:about=""><dc:format>image/svg+xml</dc:format><dc:type
           rdf:resource="http://purl.org/dc/dcmitype/StillImage" /><dc:title></dc:title></cc:Work></rdf:RDF></metadata><defs
     id="defs11" /><sodipodi:namedview
     pagecolor="#ffffff"
     bordercolor="#666666"
     borderopacity="1"
     objecttolerance="10"
     gridtolerance="10"
     guidetolerance="10"
     inkscape:pageopacity="0"
     inkscape:pageshadow="2"
     inkscape:window-width="1920"
     inkscape:window-height="1017"
     id="namedview9"
     showgrid="false"
     fit-margin-top="0"
     fit-margin-left="0"
     fit-margin-right="0"
     fit-margin-bottom="0"
     inkscape:zoom="3.6840534"
     inkscape:cx="-3.4982702"
     inkscape:cy="-16.541202"
     inkscape:window-x="-8"
     inkscape:window-y="-8"
     inkscape:window-maximized="1"
     inkscape:current-layer="Capa_1" /><g
     id="g6"
     transform="matrix(0.05463634,0,0,0.05463634,44.429258,133.29628)"><path
       style="fill:#ff9800"
       d="m 207,418.333 c 76.583,0 138.667,-62.083 138.667,-138.667 C 345.667,203.082 283.583,141 207,141 130.417,141 68.333,203.083 68.333,279.667 68.427,356.211 130.456,418.239 207,418.333 Z M 207,205 c 41.237,0 74.667,33.429 74.667,74.667 0,41.238 -33.43,74.666 -74.667,74.666 -41.237,0 -74.667,-33.429 -74.667,-74.667 C 132.333,238.428 165.763,205 207,205 Z"
       id="path2"
       inkscape:connector-curvature="0" /><path
       style="fill:#ff9800"
       d="m 342.829,484.04 c 15.07,-9.926 24.15,-26.755 24.171,-44.8 0.21,-14.976 -8.241,-28.728 -21.696,-35.307 -13.824,-6.905 -30.372,-5.35 -42.667,4.011 -56.983,41.543 -134.27,41.543 -191.253,0 C 99.07,398.632 82.551,397.079 68.717,403.933 55.268,410.511 46.813,424.249 47,439.219 c 0.032,18.042 9.109,34.866 24.171,44.8 19.324,12.851 40.368,22.906 62.507,29.867 3.755,1.166 7.63,2.247 11.627,3.243 l -64.469,63.04 c -16.912,16.409 -17.321,43.42 -0.912,60.333 16.409,16.913 43.42,17.321 60.333,0.912 0.352,-0.341 0.698,-0.689 1.038,-1.043 L 207,572.36 l 65.835,68.139 c 16.395,16.925 43.407,17.355 60.332,0.96 16.925,-16.395 17.355,-43.407 0.96,-60.332 -0.343,-0.354 -0.692,-0.702 -1.047,-1.044 l -64.363,-62.976 c 3.996,-1.024 7.886,-2.112 11.669,-3.264 22.118,-6.935 43.142,-16.969 62.443,-29.803 z"
       id="path4"
       inkscape:connector-curvature="0" /></g></svg>