<?xml version="1.0" encoding="utf-8"?>
<!-- Generator: Adobe Illustrator 22.1.0, SVG Export Plug-In . SVG Version: 6.00 Build 0)  -->
<svg version="1.2" baseProfile="tiny" id="Слой_1"
	 xmlns="http://www.w3.org/2000/svg" xmlns:xlink="http://www.w3.org/1999/xlink" x="0px" y="0px" viewBox="0 0 233.055 233.054"
	 xml:space="preserve">
<g>
	<path fill="#00B5F6" d="M116.527,0c64.36,0,116.528,52.176,116.528,116.527c0,64.36-52.168,116.527-116.528,116.527
		C52.168,233.054,0,180.887,0,116.527C0,52.176,52.168,0,116.527,0L116.527,0z M116.527,0"/>
	<path fill="#FFFFFF" d="M130.715,80.222h15.019V58.039h-17.656v0.078c-21.39,0.758-25.773,12.781-26.16,25.41h-0.043v11.078H87.309
		v21.727h14.566v58.234h21.949v-58.234h17.985l3.472-21.727h-21.449v-6.691C123.832,83.644,126.672,80.222,130.715,80.222
		L130.715,80.222z M130.715,80.222"/>
</g>
</svg>
