<?xml version="1.0" encoding="utf-8"?>
<!-- Generator: Adobe Illustrator 22.1.0, SVG Export Plug-In . SVG Version: 6.00 Build 0)  -->
<svg version="1.2" baseProfile="tiny" id="Слой_1"
	 xmlns="http://www.w3.org/2000/svg" xmlns:xlink="http://www.w3.org/1999/xlink" x="0px" y="0px" viewBox="0 0 89.758 89.758"
	 xml:space="preserve">
<g>
	<path fill="#00B5F6" d="M89.758,44.879c0,24.785-20.094,44.879-44.879,44.879S0,69.664,0,44.879C0,20.094,20.094,0,44.879,0
		S89.758,20.094,89.758,44.879L89.758,44.879z M89.758,44.879"/>
	<path fill-rule="evenodd" fill="#FFFFFF" d="M43.184,64.563h3.523c0,0,1.063-0.117,1.605-0.703c0.5-0.539,0.485-1.547,0.485-1.547
		s-0.07-4.727,2.125-5.422c2.164-0.688,4.937,4.566,7.883,6.586c2.226,1.531,3.918,1.195,3.918,1.195l7.867-0.109
		c0,0,4.117-0.254,2.164-3.492c-0.16-0.266-1.137-2.395-5.852-6.77c-4.933-4.578-4.273-3.84,1.672-11.762
		c3.621-4.824,5.067-7.769,4.617-9.031c-0.433-1.203-3.093-0.883-3.093-0.883l-8.864,0.055c0,0-0.656-0.09-1.144,0.199
		c-0.477,0.285-0.781,0.953-0.781,0.953s-1.403,3.735-3.274,6.906c-3.945,6.704-5.523,7.055-6.168,6.641
		c-1.5-0.973-1.125-3.898-1.125-5.976c0-6.493,0.985-9.2-1.918-9.899c-0.961-0.234-1.672-0.387-4.133-0.41
		c-3.164-0.035-5.839,0.008-7.355,0.75c-1.008,0.492-1.785,1.594-1.313,1.656c0.586,0.078,1.915,0.36,2.618,1.317
		c0.906,1.234,0.875,4.007,0.875,4.007s0.523,7.645-1.219,8.594c-1.195,0.653-2.832-0.68-6.352-6.758
		c-1.8-3.113-3.16-6.554-3.16-6.554s-0.262-0.641-0.73-0.985c-0.571-0.418-1.364-0.55-1.364-0.55l-8.418,0.054
		c0,0-1.265,0.035-1.73,0.586c-0.41,0.488-0.031,1.5-0.031,1.5s6.59,15.422,14.054,23.192C35.41,65.031,43.184,64.563,43.184,64.563
		L43.184,64.563z M43.184,64.563"/>
</g>
</svg>
