<?xml version="1.0" encoding="UTF-8" standalone="no"?>
<!-- Generator: Adobe Illustrator 22.1.0, SVG Export Plug-In . SVG Version: 6.00 Build 0)  -->

<svg
   xmlns:dc="http://purl.org/dc/elements/1.1/"
   xmlns:cc="http://creativecommons.org/ns#"
   xmlns:rdf="http://www.w3.org/1999/02/22-rdf-syntax-ns#"
   xmlns:svg="http://www.w3.org/2000/svg"
   xmlns="http://www.w3.org/2000/svg"
   xmlns:sodipodi="http://sodipodi.sourceforge.net/DTD/sodipodi-0.dtd"
   xmlns:inkscape="http://www.inkscape.org/namespaces/inkscape"
   version="1.2"
   id="Layer_1"
   x="0px"
   y="0px"
   viewBox="0 0 27 24.999999"
   xml:space="preserve"
   sodipodi:docname="icon-social-3.svg"
   width="27"
   height="25"
   inkscape:version="0.92.1 r15371"><metadata
     id="metadata11"><rdf:RDF><cc:Work
         rdf:about=""><dc:format>image/svg+xml</dc:format><dc:type
           rdf:resource="http://purl.org/dc/dcmitype/StillImage" /><dc:title></dc:title></cc:Work></rdf:RDF></metadata><defs
     id="defs9" /><sodipodi:namedview
     pagecolor="#ffffff"
     bordercolor="#666666"
     borderopacity="1"
     objecttolerance="10"
     gridtolerance="10"
     guidetolerance="10"
     inkscape:pageopacity="0"
     inkscape:pageshadow="2"
     inkscape:window-width="1920"
     inkscape:window-height="1017"
     id="namedview7"
     showgrid="false"
     fit-margin-top="0"
     fit-margin-left="0"
     fit-margin-right="0"
     fit-margin-bottom="0"
     inkscape:zoom="3.4301826"
     inkscape:cx="36"
     inkscape:cy="34.400499"
     inkscape:window-x="-8"
     inkscape:window-y="-8"
     inkscape:window-maximized="1"
     inkscape:current-layer="Layer_1" /><g
     id="g4"
     transform="scale(0.36336681)"><path
       d="M 72,42.18 V 68.801 H 56.566 V 43.965 c 0,-6.238 -2.23,-10.496 -7.816,-10.496 -4.266,0 -6.801,2.867 -7.918,5.644 -0.406,0.992 -0.512,2.371 -0.512,3.762 V 68.801 H 24.883 c 0,0 0.207,-42.067 0,-46.422 H 40.32 v 6.578 c -0.031,0.051 -0.074,0.102 -0.101,0.152 h 0.101 v -0.152 c 2.051,-3.156 5.711,-7.668 13.91,-7.668 10.157,0 17.77,6.633 17.77,20.891 z M 8.734,0 C 3.453,0 0,3.465 0,8.02 c 0,4.457 3.355,8.023 8.531,8.023 h 0.102 c 5.383,0 8.73,-3.566 8.73,-8.023 C 17.262,3.465 14.016,0 8.734,0 Z M 0.918,68.801 h 15.43 V 22.379 H 0.918 Z m 0,0"
       id="path2"
       inkscape:connector-curvature="0" /></g></svg>