<?xml version="1.0" standalone="no"?>
<!DOCTYPE svg PUBLIC "-//W3C//DTD SVG 20010904//EN"
 "http://www.w3.org/TR/2001/REC-SVG-20010904/DTD/svg10.dtd">
<svg version="1.0" xmlns="http://www.w3.org/2000/svg"
 width="500.000000pt" height="500.000000pt" viewBox="0 0 500.000000 500.000000"
 preserveAspectRatio="xMidYMid meet">
<metadata>
Created by potrace 1.11, written by Peter Selinger 2001-2013
</metadata>
<g transform="translate(0.000000,500.000000) scale(0.100000,-0.100000)"
fill="#000000" stroke="none">
<path d="M4030 4308 c-73 -21 -62 -18 -190 -53 -52 -15 -102 -29 -110 -33 -8
-3 -19 -7 -25 -7 -5 -1 -17 -4 -25 -8 -14 -5 -69 -21 -270 -77 -36 -10 -90
-26 -120 -35 -30 -9 -62 -18 -70 -20 -8 -2 -40 -12 -70 -21 -30 -9 -63 -16
-72 -17 -10 -1 -18 -4 -18 -7 0 -3 -12 -7 -27 -8 -15 -1 -29 -5 -32 -10 -3 -4
-13 -8 -21 -8 -8 -1 -71 -18 -140 -38 -69 -21 -133 -39 -143 -41 -10 -2 -55
-15 -100 -28 -199 -60 -263 -78 -281 -82 -27 -6 -298 -85 -316 -92 -8 -3 -22
-7 -30 -8 -8 -1 -42 -10 -75 -20 -33 -10 -67 -20 -75 -22 -8 -2 -19 -5 -25 -7
-5 -1 -30 -9 -55 -16 -25 -7 -49 -14 -55 -16 -5 -1 -79 -23 -164 -48 -85 -25
-163 -46 -172 -46 -10 0 -20 -4 -24 -9 -3 -6 -13 -10 -23 -10 -9 1 -96 -23
-192 -51 -96 -29 -179 -53 -185 -54 -120 -30 -166 -63 -209 -153 -25 -54 -33
-62 -70 -73 -60 -18 -84 -30 -151 -73 -58 -38 -163 -149 -158 -168 2 -5 -1 -9
-6 -9 -9 0 -57 -105 -68 -150 -16 -64 -15 -219 2 -277 58 -201 192 -341 386
-402 29 -9 40 -21 58 -60 24 -50 82 -121 100 -121 6 0 11 -4 11 -8 0 -5 24
-14 52 -21 29 -8 58 -16 63 -20 6 -3 18 -7 28 -8 9 -2 63 -17 120 -34 56 -17
109 -32 117 -34 8 -2 40 -11 70 -19 30 -9 75 -21 100 -27 25 -7 50 -16 55 -21
6 -5 11 -108 12 -261 1 -139 6 -270 11 -292 26 -119 122 -227 237 -265 22 -8
45 -15 50 -16 6 -2 19 -5 30 -8 20 -5 147 -41 425 -122 85 -25 180 -52 210
-60 30 -8 75 -21 100 -29 46 -14 119 -33 155 -42 98 -23 200 24 253 116 23 40
25 60 27 306 2 196 5 239 16 236 89 -24 153 -42 199 -56 61 -18 55 -16 160
-45 41 -12 89 -25 105 -30 17 -5 57 -16 90 -25 33 -9 67 -19 75 -22 19 -8 25
-9 90 -26 61 -16 199 -56 300 -87 36 -11 73 -20 82 -20 9 0 19 -4 22 -8 8 -13
97 -4 145 14 82 31 157 111 224 239 22 44 82 181 85 195 0 3 3 12 6 20 17 52
30 96 31 100 0 3 7 28 14 56 7 29 14 60 16 70 2 11 4 19 5 19 1 0 3 11 6 25 2
14 9 48 14 75 21 107 38 230 45 320 2 28 7 82 10 120 13 145 15 206 15 420 0
214 -4 314 -15 423 -3 28 -8 82 -11 120 -2 37 -9 94 -14 127 -5 33 -12 78 -16
100 -8 53 -30 163 -50 250 -9 39 -16 76 -17 83 0 6 -4 12 -9 12 -4 0 -8 8 -8
18 0 25 -52 168 -91 248 -43 90 -77 139 -135 198 -85 87 -173 109 -294 74z
m165 -225 c44 -44 106 -167 145 -288 16 -53 32 -104 34 -113 1 -9 6 -24 9 -32
3 -8 9 -32 12 -54 3 -21 7 -41 9 -45 2 -3 7 -22 10 -41 3 -19 10 -62 16 -95 6
-33 13 -73 15 -90 2 -16 6 -46 9 -65 6 -37 10 -81 23 -220 10 -109 10 -667 0
-785 -12 -144 -22 -224 -42 -340 -23 -129 -21 -123 -39 -204 -9 -40 -18 -76
-21 -80 -2 -4 -7 -22 -10 -39 -3 -17 -9 -41 -14 -54 -5 -13 -10 -27 -11 -33
-3 -13 -33 -88 -56 -140 -10 -22 -17 -43 -16 -47 1 -5 -2 -8 -6 -8 -5 0 -14
-11 -20 -24 -22 -48 -83 -106 -111 -106 -35 0 -90 54 -122 118 -13 26 -26 49
-30 52 -18 17 -101 276 -124 390 0 3 -5 23 -9 45 -5 22 -10 47 -11 55 -1 8 -7
49 -13 90 -6 41 -13 93 -16 116 -3 23 -6 45 -7 50 -4 21 2 45 10 40 4 -3 35
10 67 30 269 161 357 500 201 769 -54 93 -138 172 -231 219 -45 23 -51 30 -50
54 1 15 3 27 4 27 3 0 7 29 14 90 7 60 13 98 16 103 2 1 3 10 4 20 6 47 19
118 24 127 3 5 7 18 9 30 8 58 55 211 90 295 63 150 134 236 185 222 10 -2 34
-20 53 -39z m-431 -124 c-39 -100 -73 -204 -79 -249 -1 -8 -5 -22 -8 -30 -5
-15 -24 -94 -32 -140 -3 -14 -7 -36 -10 -50 -13 -65 -34 -212 -40 -280 -4 -36
-8 -83 -10 -105 -23 -216 -23 -746 0 -908 2 -17 7 -61 10 -97 3 -36 7 -76 10
-90 3 -14 7 -45 10 -70 3 -25 10 -72 16 -105 6 -33 13 -71 15 -85 3 -14 7 -33
10 -42 3 -10 8 -30 10 -45 3 -16 17 -68 31 -118 14 -49 26 -94 28 -100 1 -5 7
-23 14 -40 6 -16 17 -43 23 -60 6 -16 15 -34 20 -39 17 -21 7 -28 -29 -21 -21
4 -42 10 -48 13 -5 4 -17 8 -25 9 -13 2 -89 24 -335 95 -38 11 -74 21 -80 22
-12 2 -304 86 -325 94 -8 3 -20 6 -27 7 -20 5 -197 56 -213 62 -8 3 -22 7 -30
9 -8 2 -55 15 -105 30 -49 14 -103 30 -120 34 -16 5 -55 16 -85 25 -30 9 -62
18 -70 20 -8 2 -45 13 -82 24 -38 11 -68 17 -68 14 0 -3 -6 -1 -12 4 -12 9
-55 24 -83 28 -5 0 -17 4 -25 7 -21 8 -130 40 -165 48 -16 4 -86 24 -155 44
-69 20 -147 43 -175 50 -117 34 -205 59 -282 82 -45 14 -90 27 -100 29 -10 2
-42 11 -70 20 -29 8 -76 21 -104 29 -28 8 -57 23 -65 33 -14 19 -47 107 -50
133 -1 8 -7 34 -13 57 -36 131 -36 539 0 692 7 25 12 53 13 61 1 9 4 20 8 25
3 6 8 23 12 39 16 65 61 92 201 121 17 4 37 9 45 12 19 8 16 7 70 22 25 7 66
19 91 28 25 8 55 16 65 18 10 2 19 4 19 5 0 1 7 3 15 5 8 2 40 11 70 20 30 9
62 18 70 20 19 6 92 25 105 28 6 1 15 5 20 8 6 4 35 12 65 20 30 7 57 14 60
14 3 1 12 4 20 8 27 11 304 87 317 87 7 0 13 5 13 11 0 5 4 8 8 5 5 -3 38 4
73 14 35 11 73 22 84 24 11 3 67 19 125 36 58 18 112 34 120 36 8 2 35 8 60
14 25 6 52 15 61 20 9 5 34 12 55 16 22 3 45 11 52 17 6 5 12 7 12 4 0 -3 28
3 63 14 68 21 298 88 325 95 17 4 70 19 172 49 30 9 62 18 70 19 8 2 22 6 30
9 35 13 354 104 357 102 2 -1 -9 -30 -23 -66z m-3140 -1041 c-2 -24 -6 -61 -9
-83 -13 -87 -6 -390 11 -478 3 -18 -4 -16 -39 12 -44 36 -69 69 -99 130 -72
143 -29 330 97 431 21 16 39 30 41 30 1 0 1 -19 -2 -42z m3260 -60 c63 -86 85
-221 51 -317 -27 -78 -129 -202 -154 -187 -9 6 -13 568 -4 592 6 17 63 -29
107 -88z m-2109 -1219 c61 -17 117 -33 125 -34 8 -2 47 -13 85 -25 39 -12 78
-23 88 -26 9 -2 25 -6 35 -8 9 -3 58 -17 107 -31 50 -15 97 -29 105 -31 8 -2
40 -10 70 -19 30 -9 62 -18 70 -20 8 -2 40 -11 70 -20 59 -17 59 -17 137 -38
28 -8 56 -17 61 -21 10 -6 15 -461 5 -502 -5 -23 -23 -27 -69 -13 -17 5 -40
11 -50 13 -10 3 -98 27 -194 56 -96 28 -182 53 -190 55 -20 5 -113 30 -180 50
-30 9 -62 18 -70 20 -8 2 -40 11 -70 20 -30 9 -59 17 -65 19 -83 23 -102 29
-112 38 -7 6 -13 7 -13 3 0 -14 -40 27 -62 63 -19 32 -21 49 -22 259 -1 123 1
226 2 228 2 2 9 2 15 0 7 -2 62 -18 122 -36z"/>
</g>
</svg>
