<?xml version="1.0" encoding="utf-8"?>
<!-- Generator: Adobe Illustrator 22.1.0, SVG Export Plug-In . SVG Version: 6.00 Build 0)  -->
<svg version="1.2" baseProfile="tiny" id="Layer_1" xmlns="http://www.w3.org/2000/svg" xmlns:xlink="http://www.w3.org/1999/xlink"
	 x="0px" y="0px" viewBox="0 0 142 48" xml:space="preserve">
<g>
	<path fill="none" d="M3.006,47h135.988c1.108,0,2.006-0.898,2.006-2.006V3.006C141,1.898,140.106,1,138.994,1H3.006
		C1.898,1,1,1.898,1,3.006v41.988C1,46.102,1.894,47,3.006,47z"/>
	<path fill="none" d="M-10,58h162v-68H-10V58z M0,3.006C0,1.349,1.349,0,3.006,0h135.988C140.651,0,142,1.349,142,3.006v41.988
		c0,1.657-1.349,3.006-3.006,3.006H3.006C1.349,48,0,46.651,0,44.994V3.006z"/>
	<path fill="#5D5D5D" d="M3.006,48h135.988c1.657,0,3.006-1.349,3.006-3.006V3.006C142,1.349,140.651,0,138.994,0H3.006
		C1.349,0,0,1.349,0,3.006v41.988C0,46.651,1.349,48,3.006,48z M1,3.006C1,1.898,1.898,1,3.006,1h135.988
		C140.106,1,141,1.898,141,3.006v41.988c0,1.108-0.898,2.006-2.006,2.006H3.006C1.894,47,1,46.102,1,44.994V3.006z"/>
</g>
<g>
	<path fill="none" d="M20,36.951c-0.552,0-1,0.455-1,1.016s0.448,1.016,1,1.016s1-0.455,1-1.016S20.552,36.951,20,36.951z"/>
	<path fill="none" d="M18.398,11.541h3.204c0.22,0,0.398-0.236,0.398-0.508c0-0.281-0.172-0.508-0.398-0.508h-3.204
		c-0.22,0-0.398,0.236-0.398,0.508C18,11.313,18.172,11.541,18.398,11.541z"/>
	<rect x="13.5" y="13.066" fill="none" width="13" height="22.869"/>
	<path fill="#5D5D5D" d="M25.708,40C26.974,40,28,38.878,28,37.489V11.511C28,10.124,26.975,9,25.708,9H14.292
		C13.026,9,12,10.122,12,11.511v25.979C12,38.876,13.025,40,14.292,40H25.708z M20,38.984c-0.552,0-1-0.455-1-1.016
		s0.448-1.016,1-1.016s1,0.455,1,1.016S20.552,38.984,20,38.984z M18.398,10.525h3.204c0.226,0,0.398,0.228,0.398,0.508
		c0,0.272-0.178,0.508-0.398,0.508h-3.204c-0.226,0-0.398-0.227-0.398-0.508C18,10.76,18.178,10.525,18.398,10.525z M13.5,13.066h13
		v22.869h-13V13.066z"/>
</g>
<g>
	<path fill="none" d="M49.874,16.575c0,0.684,0.456,1.008,0.996,1.008c0.755,0,1.235-0.479,1.403-0.972
		c0.036-0.107,0.06-0.228,0.06-0.336v-1.007C51.181,15.244,49.874,15.448,49.874,16.575z"/>
	<path fill="none" d="M62.005,16.575c0,0.684,0.456,1.008,0.996,1.008c0.755,0,1.235-0.479,1.403-0.972
		c0.036-0.107,0.06-0.228,0.06-0.336v-1.007C63.313,15.244,62.005,15.448,62.005,16.575z"/>
	<path fill="none" d="M51.894,30.673v1.898c0,0.297,0.046,0.571,0.091,0.823c0.366,1.396,1.579,2.356,3.02,2.356
		c2.127,0,3.362-1.739,3.362-4.277c0-2.219-1.167-4.118-3.294-4.118c-1.372,0-2.653,0.984-3.042,2.493
		C51.962,30.101,51.894,30.398,51.894,30.673z"/>
	<path fill="none" d="M79.764,13.049c-1.067,0-1.535,0.984-1.619,1.716h3.083C81.239,14.093,80.952,13.049,79.764,13.049z"/>
	<path fill="none" d="M89.016,13.085c-1.247,0-1.787,1.151-1.787,2.255c0,1.271,0.732,2.231,1.763,2.231
		c1.007,0,1.763-0.948,1.763-2.255C90.755,14.333,90.263,13.085,89.016,13.085z"/>
	<path fill="none" d="M64.109,30.673v1.898c0,0.297,0.046,0.571,0.091,0.823c0.366,1.396,1.579,2.356,3.02,2.356
		c2.127,0,3.362-1.739,3.362-4.277c0-2.219-1.167-4.118-3.294-4.118c-1.372,0-2.653,0.984-3.042,2.493
		C64.178,30.101,64.109,30.398,64.109,30.673z"/>
	<path fill="none" d="M68.461,15.903c0,0.133,0.024,0.265,0.048,0.384c0.204,0.732,0.815,1.235,1.583,1.235
		c1.104,0,1.763-0.899,1.763-2.23c0-1.163-0.6-2.159-1.727-2.159c-0.72,0-1.391,0.492-1.607,1.296
		c-0.024,0.12-0.06,0.264-0.06,0.432V15.903z"/>
	<path fill="none" d="M116.4,13.049c-1.067,0-1.535,0.984-1.619,1.716h3.082C117.875,14.093,117.587,13.049,116.4,13.049z"/>
	<path fill="none" d="M96.662,31.564c0,2.425,1.396,4.255,3.362,4.255c1.921,0,3.362-1.808,3.362-4.301
		c0-1.875-0.938-4.254-3.316-4.254S96.662,29.46,96.662,31.564z"/>
	<path fill="none" d="M44.389,30.673l-1.51-4.438c-0.343-1.006-0.572-1.921-0.801-2.813h-0.045c-0.229,0.915-0.48,1.853-0.778,2.791
		l-1.51,4.46H44.389z"/>
	<path fill="none" d="M117.868,27.196c-2.036,0-2.928,1.875-3.088,3.271h5.878C120.682,29.186,120.133,27.196,117.868,27.196z"/>
	<path fill="none" d="M38.761,11.07h-0.024c-0.12,0.479-0.251,0.972-0.408,1.463l-0.792,2.339h2.435l-0.792-2.326
		C39,12.018,38.88,11.538,38.761,11.07z"/>
	<path fill="#606060" d="M38.149,10.146l-2.747,8.084h1.08l0.839-2.543h2.866l0.864,2.543h1.115l-2.758-8.084H38.149z
		 M37.537,14.872l0.792-2.339c0.156-0.491,0.288-0.983,0.408-1.463h0.024c0.12,0.468,0.24,0.947,0.419,1.476l0.792,2.326H37.537z"/>
	<path fill="#606060" d="M45.805,18.23l2.279-5.805H46.98l-1.127,3.262c-0.192,0.528-0.36,1.008-0.492,1.487h-0.036
		c-0.12-0.479-0.276-0.959-0.468-1.487l-1.14-3.262H42.59l2.207,5.805H45.805z"/>
	<path fill="#606060" d="M48.818,16.695c0,0.84,0.6,1.667,1.775,1.667c0.828,0,1.451-0.407,1.775-0.863h0.036l0.084,0.731h0.959
		c-0.072-0.396-0.096-0.888-0.096-1.392v-2.171c0-1.163-0.432-2.374-2.207-2.374c-0.732,0-1.427,0.204-1.907,0.516l0.24,0.695
		c0.408-0.264,0.971-0.432,1.511-0.432c1.187,0,1.319,0.863,1.319,1.344v0.119C50.065,14.524,48.818,15.292,48.818,16.695z
		 M52.332,15.269v1.007c0,0.108-0.024,0.229-0.06,0.336c-0.168,0.492-0.648,0.972-1.403,0.972c-0.54,0-0.996-0.324-0.996-1.008
		C49.874,15.448,51.181,15.244,52.332,15.269z"/>
	<rect x="55.298" y="12.426" fill="#606060" width="1.056" height="5.805"/>
	<path fill="#606060" d="M55.826,10.135c-0.384,0-0.66,0.288-0.66,0.66c0,0.359,0.264,0.647,0.636,0.647
		c0.419,0,0.684-0.288,0.671-0.647C56.473,10.423,56.221,10.135,55.826,10.135z"/>
	<rect x="58.333" y="9.715" fill="#606060" width="1.056" height="8.516"/>
	<path fill="#606060" d="M60.95,16.695c0,0.84,0.6,1.667,1.775,1.667c0.828,0,1.451-0.407,1.775-0.863h0.036l0.084,0.731h0.959
		c-0.072-0.396-0.096-0.888-0.096-1.392v-2.171c0-1.163-0.432-2.374-2.207-2.374c-0.732,0-1.427,0.204-1.907,0.516l0.24,0.695
		c0.408-0.264,0.971-0.432,1.511-0.432c1.187,0,1.319,0.863,1.319,1.344v0.119C62.197,14.524,60.95,15.292,60.95,16.695z
		 M64.464,15.269v1.007c0,0.108-0.024,0.229-0.06,0.336c-0.168,0.492-0.648,0.972-1.403,0.972c-0.54,0-0.996-0.324-0.996-1.008
		C62.005,15.448,63.313,15.244,64.464,15.269z"/>
	<path fill="#606060" d="M67.417,9.715v7.017c0,0.516-0.024,1.104-0.048,1.499h0.912l0.048-0.959h0.036
		c0.432,0.768,1.103,1.091,1.943,1.091c1.295,0,2.603-1.031,2.603-3.106c0.012-1.763-1.008-2.962-2.447-2.962
		c-0.936,0-1.607,0.42-1.979,1.067h-0.024V9.715H67.417z M68.521,14.429c0.216-0.804,0.887-1.296,1.607-1.296
		c1.127,0,1.727,0.996,1.727,2.159c0,1.331-0.66,2.23-1.763,2.23c-0.768,0-1.379-0.503-1.583-1.235
		c-0.024-0.119-0.048-0.251-0.048-0.384V14.86C68.461,14.692,68.497,14.549,68.521,14.429z"/>
	<rect x="74.485" y="9.715" fill="#606060" width="1.056" height="8.516"/>
	<path fill="#606060" d="M79.848,12.294c-1.691,0-2.723,1.379-2.723,3.13s1.067,2.927,2.854,2.927c0.924,0,1.559-0.192,1.931-0.36
		l-0.18-0.755c-0.396,0.168-0.852,0.3-1.607,0.3c-1.056,0-1.967-0.588-1.991-2.016h4.078c0.012-0.107,0.036-0.275,0.036-0.491
		C82.247,13.961,81.743,12.294,79.848,12.294z M78.145,14.765c0.084-0.731,0.552-1.716,1.619-1.716c1.188,0,1.475,1.044,1.463,1.716
		H78.145z"/>
	<path fill="#606060" d="M89.04,12.294c-1.607,0-2.878,1.14-2.878,3.082c0,1.835,1.211,2.986,2.783,2.986
		c1.403,0,2.89-0.936,2.89-3.082C91.834,13.505,90.707,12.294,89.04,12.294z M88.992,17.571c-1.031,0-1.763-0.96-1.763-2.231
		c0-1.104,0.54-2.255,1.787-2.255c1.248,0,1.739,1.248,1.739,2.231C90.755,16.623,89.999,17.571,88.992,17.571z"/>
	<path fill="#606060" d="M96.3,12.294c-0.959,0-1.631,0.539-1.919,1.091h-0.024l-0.06-0.959h-0.936
		c0.036,0.479,0.048,0.972,0.048,1.571v4.233h1.056v-3.49c0-0.18,0.024-0.359,0.072-0.491c0.18-0.588,0.72-1.08,1.415-1.08
		c0.996,0,1.343,0.78,1.343,1.716v3.346h1.056v-3.466C98.351,12.773,97.103,12.294,96.3,12.294z"/>
	<path fill="#606060" d="M103.321,11.034v1.392h-0.899v0.804h0.899v3.166c0,0.684,0.108,1.199,0.408,1.511
		c0.252,0.288,0.648,0.444,1.14,0.444c0.408,0,0.731-0.061,0.936-0.145l-0.048-0.791c-0.132,0.036-0.336,0.072-0.612,0.072
		c-0.588,0-0.792-0.408-0.792-1.128v-3.13h1.511v-0.804h-1.511v-1.667L103.321,11.034z"/>
	<path fill="#606060" d="M107.281,9.715v8.516h1.055v-3.502c0-0.204,0.013-0.36,0.072-0.504c0.191-0.575,0.731-1.056,1.415-1.056
		c0.996,0,1.344,0.792,1.344,1.728v3.334h1.055v-3.454c0-2.003-1.247-2.482-2.026-2.482c-0.396,0-0.768,0.12-1.079,0.3
		c-0.324,0.18-0.588,0.443-0.756,0.743h-0.024V9.715H107.281z"/>
	<path fill="#606060" d="M118.883,15.028c0-1.067-0.504-2.734-2.398-2.734c-1.691,0-2.723,1.379-2.723,3.13s1.067,2.927,2.854,2.927
		c0.923,0,1.559-0.192,1.931-0.36l-0.18-0.755c-0.396,0.168-0.852,0.3-1.607,0.3c-1.056,0-1.967-0.588-1.991-2.016h4.078
		C118.858,15.412,118.883,15.244,118.883,15.028z M114.781,14.765c0.084-0.731,0.552-1.716,1.619-1.716
		c1.187,0,1.475,1.044,1.463,1.716H114.781z"/>
	<path fill="#606060" d="M35.674,37.077h2.059l1.601-4.849h5.467l1.646,4.849h2.127l-5.261-15.417h-2.402L35.674,37.077z
		 M42.033,23.422h0.045c0.229,0.892,0.458,1.807,0.801,2.813l1.51,4.438h-4.644l1.51-4.46
		C41.553,25.275,41.804,24.337,42.033,23.422z"/>
	<path fill="#606060" d="M63.972,27.905h-0.046l-0.091-1.898h-1.807c0.046,1.052,0.092,2.196,0.092,3.614v11.986h1.99v-6.016h0.046
		c0.663,1.098,1.944,1.738,3.408,1.738c2.608,0,5.032-1.968,5.032-5.947c0-3.362-2.013-5.627-4.689-5.627
		C66.099,25.755,64.795,26.556,63.972,27.905z M67.288,27.356c2.127,0,3.294,1.898,3.294,4.118c0,2.538-1.235,4.277-3.362,4.277
		c-1.441,0-2.653-0.961-3.02-2.356c-0.045-0.252-0.091-0.526-0.091-0.823v-1.898c0-0.274,0.069-0.572,0.137-0.824
		C64.635,28.34,65.916,27.356,67.288,27.356z"/>
	<path fill="#606060" d="M51.756,27.905H51.71l-0.091-1.898h-1.807c0.046,1.052,0.092,2.196,0.092,3.614v11.986h1.99v-6.016h0.046
		c0.663,1.098,1.944,1.738,3.408,1.738c2.608,0,5.032-1.968,5.032-5.947c0-3.362-2.013-5.627-4.689-5.627
		C53.883,25.755,52.58,26.556,51.756,27.905z M55.073,27.356c2.127,0,3.294,1.898,3.294,4.118c0,2.538-1.235,4.277-3.362,4.277
		c-1.441,0-2.653-0.961-3.02-2.356c-0.045-0.252-0.091-0.526-0.091-0.823v-1.898c0-0.274,0.069-0.572,0.137-0.824
		C52.419,28.34,53.701,27.356,55.073,27.356z"/>
	<path fill="#606060" d="M77.995,25.595c0,2.173,1.556,3.477,4.071,4.369c2.082,0.801,2.905,1.624,2.905,3.064
		c0,1.556-1.189,2.631-3.225,2.631c-1.373,0-2.676-0.458-3.568-1.007l-0.503,1.67c0.824,0.549,2.448,0.983,3.935,0.983
		c3.637,0,5.398-2.059,5.398-4.438c0-2.264-1.327-3.522-3.934-4.528c-2.127-0.824-3.065-1.533-3.065-2.974
		c0-1.052,0.801-2.31,2.905-2.31c1.395,0,2.424,0.458,2.928,0.732l0.549-1.624c-0.686-0.389-1.83-0.755-3.408-0.755
		C79.985,21.409,77.995,23.193,77.995,25.595z"/>
	<path fill="#606060" d="M91.217,22.827l-1.967,0.526v2.653h-1.715v1.532h1.715v6.038c0,1.305,0.206,2.288,0.778,2.883
		c0.48,0.549,1.235,0.846,2.173,0.846c0.778,0,1.396-0.114,1.784-0.274l-0.091-1.51c-0.252,0.069-0.641,0.138-1.167,0.138
		c-1.121,0-1.51-0.777-1.51-2.15v-5.97h2.882v-1.532h-2.882V22.827z"/>
	<path fill="#606060" d="M94.626,31.634c0,3.499,2.31,5.695,5.307,5.695c2.676,0,5.512-1.784,5.512-5.879
		c0-3.385-2.15-5.695-5.329-5.695C97.051,25.755,94.626,27.928,94.626,31.634z M103.386,31.519c0,2.493-1.441,4.301-3.362,4.301
		c-1.967,0-3.362-1.83-3.362-4.255c0-2.104,1.029-4.3,3.408-4.3S103.386,29.644,103.386,31.519z"/>
	<path fill="#606060" d="M107.186,29.46v7.617h1.989v-5.901c0-0.343,0.046-0.663,0.092-0.938c0.274-1.51,1.281-2.585,2.699-2.585
		c0.274,0,0.48,0.023,0.687,0.069v-1.898c-0.184-0.046-0.344-0.069-0.572-0.069c-1.35,0-2.562,0.938-3.064,2.425h-0.092
		l-0.068-2.173h-1.762C107.162,27.036,107.186,28.157,107.186,29.46z"/>
	<path fill="#606060" d="M118.028,25.755c-3.226,0-5.192,2.63-5.192,5.97c0,3.34,2.036,5.581,5.443,5.581
		c1.762,0,2.974-0.366,3.683-0.686l-0.343-1.441c-0.755,0.32-1.624,0.572-3.065,0.572c-2.013,0-3.751-1.121-3.797-3.843h7.777
		c0.022-0.206,0.068-0.526,0.068-0.938C122.603,28.935,121.642,25.755,118.028,25.755z M114.78,30.467
		c0.16-1.395,1.052-3.271,3.088-3.271c2.265,0,2.813,1.99,2.79,3.271H114.78z"/>
</g>
</svg>
