<?xml version="1.0" encoding="utf-8"?>
<!-- Generator: Adobe Illustrator 22.1.0, SVG Export Plug-In . SVG Version: 6.00 Build 0)  -->
<svg version="1.2" baseProfile="tiny" id="Layer_1" xmlns="http://www.w3.org/2000/svg" xmlns:xlink="http://www.w3.org/1999/xlink"
	 x="0px" y="0px" viewBox="0 0 320 320" xml:space="preserve">
<g>
	<path d="M159.992,0C71.773,0,0,71.777,0,160s71.773,160,159.992,160C248.219,320,320,248.223,320,160S248.219,0,159.992,0
		L159.992,0z M159.992,299.016c-76.648,0-139.008-62.364-139.008-139.016S83.34,20.984,159.992,20.984
		c76.66,0,139.024,62.364,139.024,139.016S236.652,299.016,159.992,299.016L159.992,299.016z M159.992,299.016"/>
	<path d="M212.379,107.625c-4.098-4.102-10.738-4.102-14.836,0L160,145.164l-37.543-37.539c-4.098-4.102-10.738-4.102-14.836,0
		c-4.098,4.094-4.098,10.738,0,14.836L145.156,160l-37.543,37.539c-4.097,4.098-4.097,10.738,0,14.84
		c2.051,2.047,4.735,3.074,7.422,3.074c2.684,0,5.367-1.027,7.414-3.074L160,174.836l37.543,37.543
		c2.047,2.051,4.73,3.074,7.418,3.074c2.684,0,5.367-1.023,7.418-3.074c4.098-4.094,4.098-10.738,0-14.836L174.836,160
		l37.543-37.539C216.477,118.363,216.477,111.723,212.379,107.625L212.379,107.625z M212.379,107.625"/>
</g>
</svg>
