<?xml version="1.0" encoding="UTF-8" standalone="no"?>
<!-- Created with Inkscape (http://www.inkscape.org/) -->

<svg
   xmlns:dc="http://purl.org/dc/elements/1.1/"
   xmlns:cc="http://creativecommons.org/ns#"
   xmlns:rdf="http://www.w3.org/1999/02/22-rdf-syntax-ns#"
   xmlns:svg="http://www.w3.org/2000/svg"
   xmlns="http://www.w3.org/2000/svg"
   xmlns:sodipodi="http://sodipodi.sourceforge.net/DTD/sodipodi-0.dtd"
   xmlns:inkscape="http://www.inkscape.org/namespaces/inkscape"
   version="1.1"
   id="svg2"
   width="100"
   height="100"
   viewBox="0 0 100 100"
   sodipodi:docname="icon-2.svg"
   inkscape:version="0.92.1 r15371">
  <metadata
     id="metadata8">
    <rdf:RDF>
      <cc:Work
         rdf:about="">
        <dc:format>image/svg+xml</dc:format>
        <dc:type
           rdf:resource="http://purl.org/dc/dcmitype/StillImage" />
        <dc:title></dc:title>
      </cc:Work>
    </rdf:RDF>
  </metadata>
  <defs
     id="defs6" />
  <sodipodi:namedview
     pagecolor="#ffffff"
     bordercolor="#666666"
     borderopacity="1"
     objecttolerance="10"
     gridtolerance="10"
     guidetolerance="10"
     inkscape:pageopacity="0"
     inkscape:pageshadow="2"
     inkscape:window-width="1920"
     inkscape:window-height="1017"
     id="namedview4"
     showgrid="false"
     fit-margin-top="0"
     fit-margin-left="0"
     fit-margin-right="0"
     fit-margin-bottom="0"
     inkscape:zoom="5.9936508"
     inkscape:cx="64.786618"
     inkscape:cy="39.972476"
     inkscape:window-x="-8"
     inkscape:window-y="-8"
     inkscape:window-maximized="1"
     inkscape:current-layer="svg2" />
  <path
     style="fill:#191919;stroke-width:0.31345087"
     d="m 44.286828,99.222661 c -5.84078,-0.67881 -11.66967,-2.412425 -16.86789,-5.016805 -13.94518,-6.9867 -23.6063005,-19.61792 -26.6624205,-34.85922 -1.00869,-5.03046 -1.00869,-13.29248 0,-18.32293 5.94294,-29.63826 36.4953205,-47.1607808 65.4589405,-37.5422908 16.872169,5.6030602 29.278239,19.5352408 33.0749,37.1435008 0.60386,2.80064 0.70964,4.2257 0.70964,9.56025 0,5.33455 -0.10578,6.75961 -0.70964,9.56025 -4.63848,21.51252 -21.76963,36.95922 -43.78685,39.481405 -3.187021,0.3651 -8.055021,0.36329 -11.21668,-0.004 z m 15.93115,-6.671915 c 20.18982,-5.11275 34.0069,-22.32598 34.0069,-42.36558 0,-18.45782 -12.0979,-35.09416 -29.93204,-41.1608506 -5.126,-1.7437302 -7.51944,-2.0953702 -14.26202,-2.0953702 -8.25475,0 -12.57371,0.94635 -19.27723,4.2239408 -4.55789,2.22852 -7.70364,4.44481 -11.48634,8.09255 -6.58956,6.35446 -10.6196605,13.58206 -12.7076505,22.79001 -0.80527,3.55121 -0.80524,12.74844 5e-5,16.29944 1.35383,5.96985 3.6938505,11.44691 6.8735405,16.08824 3.50585,5.11743 9.73582,10.75567 15.14731,13.70859 7.62027,4.1582 13.31712,5.50414 22.5474,5.32706 5.0929,-0.0977 6.40961,-0.22924 9.09008,-0.90803 z m -12.23883,-25.73844 c -0.76695,-0.76694 -0.769381,-0.78978 -0.769381,-7.20937 v -6.43999 h -6.4017 -6.401689 l -0.9644,-0.81149 c -0.802991,-0.67566 -0.96441,-1.03825 -0.96441,-2.16629 0,-1.12804 0.16142,-1.49062 0.96441,-2.16629 l 0.9644,-0.81149 h 6.401689 6.4017 v -6.43999 c 0,-6.41959 0.002,-6.44243 0.769381,-7.20937 1.069169,-1.06918 3.03418,-1.06918 4.103349,0 0.76694,0.76694 0.76938,0.78978 0.76938,7.20937 v 6.43999 h 6.28459 c 7.05504,0 8.00472,0.21486 8.33909,1.88666 0.22489,1.12449 0.22489,1.05775 0,2.18224 -0.33437,1.6718 -1.28405,1.88666 -8.33909,1.88666 h -6.28459 v 6.43999 c 0,6.41959 -0.003,6.44243 -0.76938,7.20937 -0.566109,0.56612 -1.10816,0.76938 -2.051679,0.76938 -0.94351,0 -1.485561,-0.20326 -2.05167,-0.76938 z"
     id="path12"
     inkscape:connector-curvature="0" />
</svg>
