<?xml version="1.0" encoding="UTF-8" standalone="no"?>
<!-- Created with Inkscape (http://www.inkscape.org/) -->

<svg
   xmlns:dc="http://purl.org/dc/elements/1.1/"
   xmlns:cc="http://creativecommons.org/ns#"
   xmlns:rdf="http://www.w3.org/1999/02/22-rdf-syntax-ns#"
   xmlns:svg="http://www.w3.org/2000/svg"
   xmlns="http://www.w3.org/2000/svg"
   xmlns:sodipodi="http://sodipodi.sourceforge.net/DTD/sodipodi-0.dtd"
   xmlns:inkscape="http://www.inkscape.org/namespaces/inkscape"
   version="1.1"
   id="svg2"
   width="100"
   height="100"
   viewBox="0 0 100 100"
   sodipodi:docname="ico.svg"
   inkscape:version="0.92.1 r15371">
  <metadata
     id="metadata8">
    <rdf:RDF>
      <cc:Work
         rdf:about="">
        <dc:format>image/svg+xml</dc:format>
        <dc:type
           rdf:resource="http://purl.org/dc/dcmitype/StillImage" />
        <dc:title></dc:title>
      </cc:Work>
    </rdf:RDF>
  </metadata>
  <defs
     id="defs6" />
  <sodipodi:namedview
     pagecolor="#ffffff"
     bordercolor="#666666"
     borderopacity="1"
     objecttolerance="10"
     gridtolerance="10"
     guidetolerance="10"
     inkscape:pageopacity="0"
     inkscape:pageshadow="2"
     inkscape:window-width="1920"
     inkscape:window-height="1017"
     id="namedview4"
     showgrid="false"
     inkscape:zoom="6.9667897"
     inkscape:cx="69.668809"
     inkscape:cy="43.669899"
     inkscape:window-x="-8"
     inkscape:window-y="-8"
     inkscape:window-maximized="1"
     inkscape:current-layer="svg2"
     fit-margin-top="0"
     fit-margin-left="0"
     fit-margin-right="0"
     fit-margin-bottom="0" />
  <path
     style="fill:#191919;stroke-width:0.31521073"
     d="m 17.96701,87.299568 c 0,-2.86961 0.18414,-5.66274 0.47276,-7.17105 0.26002,-1.35883 0.47279,-2.50607 0.47282,-2.54941 3e-5,-0.0433 -4.25529,-0.0788 -9.45627,-0.0788 H 0 l 0.011,-4.64936 c 0.0211,-8.94291 1.68023,-13.90692 6.27639,-18.7791 2.43519,-2.58142 4.90805,-4.39675 8.44871,-6.2022 1.43027,-0.72932 2.60049,-1.38177 2.60049,-1.44989 0,-0.0681 -0.47981,-0.79795 -1.06624,-1.62184 -3.45484,-4.85376 -5.11374,-11.70107 -4.29577,-17.73133 0.78485,-5.78614 2.99347,-10.31032 6.94972,-14.23597 4.79828,-4.76117 11.03229,-6.61333 17.29243,-5.13769 4.38605,1.03389 9.54507,4.81385 12.01051,8.79998 1.89327,3.06105 1.67114,2.97682 2.76039,1.04677 3.54662,-6.28426 10.15949,-10.31244 16.95286,-10.3267 4.91302,-0.0103 9.40794,1.96338 13.2724,5.82783 2.18736,2.18737 2.80349,3.05566 4.15401,5.85416 1.9464,4.03323 2.69693,7.24829 2.68025,11.48133 -0.0206,5.20999 -1.3416,9.73827 -4.03919,13.84543 -0.78251,1.1914 -1.42275,2.2145 -1.42275,2.27354 0,0.059 1.17022,0.69275 2.60049,1.40824 7.27997,3.64179 11.99656,9.07933 13.83726,15.95236 0.50366,1.88064 0.69471,3.76247 0.81719,8.04945 L 100,77.500308 h -9.53482 -9.53482 l 0.21569,1.02443 c 0.63537,3.01774 0.80526,4.90906 0.80692,8.98351 l 0.002,4.49175 H 49.96108 17.96719 Z m 57.58858,-3.88906 c -0.34768,-4.79354 -2.04802,-8.37285 -5.51606,-11.61162 -1.95474,-1.82552 -3.13529,-2.57374 -7.42833,-4.70804 -6.12316,-3.04414 -6.74585,-3.5073 -6.98233,-5.19347 -0.17299,-1.23338 -0.1411,-1.28479 1.46364,-2.36021 4.06128,-2.72166 6.88432,-8.66911 6.88432,-14.50357 0,-6.7921 -3.60614,-13.29735 -8.78446,-15.84663 -1.91217,-0.94136 -2.30194,-1.01714 -5.23147,-1.01714 -2.93648,0 -3.31637,0.0743 -5.25367,1.02807 -2.6371,1.29824 -5.50563,4.28361 -6.87705,7.15716 -3.87956,8.12887 -1.48752,18.93959 5.16853,23.35895 1.66503,1.10552 1.68271,1.13385 1.42438,2.28181 -0.34743,1.54396 -1.06147,2.06148 -6.7017,4.85719 -2.63003,1.30363 -5.63294,3.01459 -6.67313,3.80212 -2.89441,2.19136 -5.24493,5.64192 -6.14187,9.01627 -0.42915,1.61448 -0.92592,5.7591 -0.73152,6.10319 0.0735,0.13002 11.70661,0.23641 25.85145,0.23641 H 75.74421 Z M 24.50547,68.411568 c 2.03642,-2.05433 3.62375,-3.29422 6.0531,-4.72817 1.81106,-1.069 3.44227,-1.9458 3.62492,-1.94846 0.18265,-0.003 0.53138,-0.131 0.77496,-0.28521 0.35724,-0.22616 0.22773,-0.57574 -0.66964,-1.80763 -8.59848,-11.80383 -4.60751,-30.04463 7.87062,-35.97276 1.25691,-0.59713 2.28395,-1.17633 2.28232,-1.2871 -0.01,-0.66477 -2.22701,-3.89095 -3.65669,-5.32063 -7.75597,-7.75596 -19.8361,-2.91342 -22.35197,8.9602 -1.57594,7.43768 1.41132,15.72229 6.92749,19.21208 1.25435,0.79356 1.37245,0.97255 1.21188,1.83673 -0.29702,1.59851 -1.55327,2.5615 -6.52403,5.00108 -6.87254,3.37295 -9.91284,5.86513 -11.89503,9.75055 -0.89601,1.75632 -1.84919,5.72051 -1.84919,7.6906 v 1.68324 h 7.7205 7.72049 z m 69.01442,0.34164 c -0.42627,-5.44824 -3.00021,-10.09656 -7.28318,-13.15282 -1.06849,-0.76246 -3.99387,-2.38431 -6.50083,-3.60411 -5.58646,-2.71817 -5.9711,-3.00734 -6.19213,-4.6552 -0.16552,-1.23403 -0.11896,-1.31828 1.24853,-2.25913 4.62437,-3.18165 7.5573,-9.95537 7.03294,-16.24287 -0.77477,-9.29014 -7.45482,-16.2263 -14.95921,-15.53275 -4.20318,0.38846 -8.58611,3.48005 -10.61787,7.48954 -0.42408,0.83688 -0.77105,1.57567 -0.77105,1.64175 0,0.0661 1.02837,0.63384 2.28527,1.26167 4.55868,2.27711 7.75856,5.61699 10.0211,10.45954 1.76909,3.78642 2.30873,6.29733 2.30332,10.71717 -0.007,5.65193 -1.29031,10.04598 -4.17478,14.29356 -0.74266,1.0936 -1.30212,2.02675 -1.24324,2.07365 0.0589,0.0469 1.52549,0.822 3.25915,1.72243 3.64291,1.89208 6.67196,4.22914 8.49371,6.55333 l 1.27782,1.63022 8.00579,0.0235 8.00579,0.0235 -0.19113,-2.44289 z"
     id="path12"
     inkscape:connector-curvature="0" />
</svg>
