<?xml version="1.0" encoding="UTF-8" standalone="no"?>
<!-- Created with Inkscape (http://www.inkscape.org/) -->

<svg
   xmlns:dc="http://purl.org/dc/elements/1.1/"
   xmlns:cc="http://creativecommons.org/ns#"
   xmlns:rdf="http://www.w3.org/1999/02/22-rdf-syntax-ns#"
   xmlns:svg="http://www.w3.org/2000/svg"
   xmlns="http://www.w3.org/2000/svg"
   xmlns:sodipodi="http://sodipodi.sourceforge.net/DTD/sodipodi-0.dtd"
   xmlns:inkscape="http://www.inkscape.org/namespaces/inkscape"
   version="1.1"
   id="svg2"
   width="100"
   height="100.03869"
   viewBox="0 0 100 100.03869"
   sodipodi:docname="round-information-button.svg"
   inkscape:version="0.92.1 r15371">
  <metadata
     id="metadata8">
    <rdf:RDF>
      <cc:Work
         rdf:about="">
        <dc:format>image/svg+xml</dc:format>
        <dc:type
           rdf:resource="http://purl.org/dc/dcmitype/StillImage" />
        <dc:title></dc:title>
      </cc:Work>
    </rdf:RDF>
  </metadata>
  <defs
     id="defs6" />
  <sodipodi:namedview
     pagecolor="#ffffff"
     bordercolor="#666666"
     borderopacity="1"
     objecttolerance="10"
     gridtolerance="10"
     guidetolerance="10"
     inkscape:pageopacity="0"
     inkscape:pageshadow="2"
     inkscape:window-width="1920"
     inkscape:window-height="1017"
     id="namedview4"
     showgrid="false"
     fit-margin-top="0"
     fit-margin-left="0"
     fit-margin-right="0"
     fit-margin-bottom="0"
     inkscape:zoom="3.4143673"
     inkscape:cx="0.55504671"
     inkscape:cy="124.23506"
     inkscape:window-x="-8"
     inkscape:window-y="-8"
     inkscape:window-maximized="1"
     inkscape:current-layer="svg2" />
  <path
     style="fill:#0a0a0a;stroke-width:0.25858116"
     d="M 46.39804,99.9174 C 34.52996,99.16531 22.95887,93.85003 14.33282,85.18799 7.38445,78.21061 2.85464,69.71716 0.69852,59.62346 0.04538,56.56584 0,55.93347 0,49.88888 0,43.83164 0.0444,43.21655 0.70427,40.12591 5.01577,19.93294 19.93294,5.01577 40.12591,0.70426 43.21655,0.04437 43.83164,0 49.88889,0 c 6.04458,0 6.67695,0.0454 9.73457,0.69851 10.07025,2.15112 18.60336,6.70207 25.56453,13.63431 8.74174,8.7054 13.97233,20.15699 14.70507,32.19451 0.56874,9.34333 -1.12316,17.66049 -5.26528,25.88339 -4.96499,9.85646 -12.36779,17.25964 -22.21705,22.21817 -5.81008,2.92503 -12.24333,4.79456 -17.77064,5.16423 -4.40639,0.2947 -5.33245,0.30867 -8.24205,0.12428 z M 58.70972,93.09311 C 70.4314,90.63406 80.2898,83.87813 86.92236,73.75909 c 2.97408,-4.53743 5.00075,-9.49466 6.20666,-15.18148 0.61705,-2.90988 0.6922,-3.82568 0.70231,-8.55944 C 93.84413,44.03 93.42038,41.1766 91.7703,36.13936 87.23678,22.29974 75.72279,11.30521 61.74584,7.46944 50.22878,4.30876 38.51136,5.76058 28.04812,11.6447 21.68206,15.22471 15.21504,21.69926 11.62013,28.09181 5.76231,38.50831 4.31429,50.24892 7.46944,61.74583 c 4.38072,15.96267 17.91209,28.40491 34.18783,31.43605 4.01399,0.74755 4.1382,0.75637 9.26594,0.65778 3.74132,-0.0719 5.26893,-0.21839 7.78651,-0.74655 z M 42.5393,76.18688 c -0.97573,-0.529 -1.83004,-1.88111 -1.83004,-2.8964 0,-1.01568 0.85487,-2.36823 1.82601,-2.88906 0.5811,-0.31165 1.42521,-0.4725 2.47964,-0.4725 1.03694,0 1.64444,-0.11356 1.72904,-0.32322 0.0717,-0.17778 0.13961,-6.37985 0.15084,-13.78238 0.0154,-10.14662 -0.056,-13.53552 -0.28988,-13.76945 -0.17271,-0.1727 -1.00401,-0.31072 -1.87472,-0.31126 -1.92992,-10e-4 -3.10773,-0.6412 -3.67396,-1.99639 -0.77995,-1.86668 0.23277,-3.89669 2.24468,-4.49947 0.54528,-0.16337 2.3747,-0.24051 4.40662,-0.18581 3.6932,0.0994 4.50614,0.35003 5.23019,1.61228 0.23156,0.4037 0.34627,4.77285 0.44201,16.8358 l 0.12929,16.29061 1.93936,0.14115 c 2.21537,0.16123 3.11305,0.62296 3.72715,1.91708 0.70672,1.4893 0.4033,2.69902 -1.00787,4.01843 l -0.69142,0.64645 -7.02594,0.072 c -6.43471,0.0659 -7.10042,0.0316 -7.911,-0.40785 z m 5.21795,-45.32272 c -1.89137,-0.57165 -3.42601,-3.09586 -3.02789,-4.98032 0.73761,-3.4913 4.87415,-4.84875 7.36239,-2.41603 1.00012,0.9778 1.32743,1.76401 1.32951,3.19357 0.004,2.93444 -2.85091,5.05302 -5.66401,4.20278 z"
     id="path12"
     inkscape:connector-curvature="0" />
</svg>
