<?xml version="1.0" encoding="utf-8"?>
<!-- Generator: Adobe Illustrator 22.1.0, SVG Export Plug-In . SVG Version: 6.00 Build 0)  -->
<svg version="1.2" baseProfile="tiny" id="Layer_1" xmlns="http://www.w3.org/2000/svg" xmlns:xlink="http://www.w3.org/1999/xlink"
	 x="0px" y="0px" viewBox="0 0 320 320" xml:space="preserve">
<g>
	<path d="M159.996,0C71.77,0,0,71.777,0,160s71.77,160,159.996,160C248.223,320,320,248.223,320,160S248.223,0,159.996,0L159.996,0z
		 M159.996,299.016c-76.652,0-139.012-62.364-139.012-139.016S83.344,20.984,159.996,20.984c76.656,0,139.02,62.364,139.02,139.016
		S236.648,299.016,159.996,299.016L159.996,299.016z M159.996,299.016"/>
	<path d="M217.926,107.621l-82.504,82.5l-33.352-33.344c-4.101-4.093-10.738-4.097-14.836,0.004c-4.101,4.098-4.101,10.739,0,14.84
		l40.77,40.762c2.047,2.047,4.73,3.07,7.418,3.07c2.683,0,5.375-1.023,7.422-3.074c0.004-0.008,0.011-0.016,0.019-0.027
		l89.899-89.895c4.097-4.098,4.097-10.742,0-14.836C228.664,103.523,222.02,103.523,217.926,107.621L217.926,107.621z
		 M217.926,107.621"/>
</g>
</svg>
