<?xml version="1.0" encoding="UTF-8" standalone="no"?>
<!-- Generator: Adobe Illustrator 22.1.0, SVG Export Plug-In . SVG Version: 6.00 Build 0)  -->

<svg
   xmlns:dc="http://purl.org/dc/elements/1.1/"
   xmlns:cc="http://creativecommons.org/ns#"
   xmlns:rdf="http://www.w3.org/1999/02/22-rdf-syntax-ns#"
   xmlns:svg="http://www.w3.org/2000/svg"
   xmlns="http://www.w3.org/2000/svg"
   xmlns:sodipodi="http://sodipodi.sourceforge.net/DTD/sodipodi-0.dtd"
   xmlns:inkscape="http://www.inkscape.org/namespaces/inkscape"
   version="1.2"
   id="Layer_1"
   x="0px"
   y="0px"
   viewBox="0 0 33 19"
   xml:space="preserve"
   sodipodi:docname="icon-social-1.svg"
   width="33"
   height="19"
   inkscape:version="0.92.1 r15371"><metadata
     id="metadata9"><rdf:RDF><cc:Work
         rdf:about=""><dc:format>image/svg+xml</dc:format><dc:type
           rdf:resource="http://purl.org/dc/dcmitype/StillImage" /><dc:title></dc:title></cc:Work></rdf:RDF></metadata><defs
     id="defs7" /><sodipodi:namedview
     pagecolor="#ffffff"
     bordercolor="#666666"
     borderopacity="1"
     objecttolerance="10"
     gridtolerance="10"
     guidetolerance="10"
     inkscape:pageopacity="0"
     inkscape:pageshadow="2"
     inkscape:window-width="1920"
     inkscape:window-height="1017"
     id="namedview5"
     showgrid="false"
     fit-margin-top="0"
     fit-margin-left="0"
     fit-margin-right="0"
     fit-margin-bottom="0"
     inkscape:zoom="2.2777778"
     inkscape:cx="63"
     inkscape:cy="-65.158191"
     inkscape:window-x="-8"
     inkscape:window-y="-8"
     inkscape:window-maximized="1"
     inkscape:current-layer="Layer_1" /><path
     d="m 2.345618,6.7633783 c 0.807443,1.5152 1.5086505,2.734063 2.1038859,3.6587177 0.5962901,0.924922 1.2025973,1.797705 1.8215579,2.617551 0.6189605,0.820911 1.0286133,1.346816 1.2284311,1.578512 0.2008722,0.231695 0.3585121,0.404071 0.4726559,0.519519 l 0.4294237,0.416574 c 0.2749472,0.27745 0.6785369,0.609964 1.2120872,0.996478 0.5322323,0.387579 1.1224593,0.769039 1.7690993,1.145179 0.647693,0.375075 1.400305,0.68152 2.260207,0.918537 0.858848,0.237015 1.695025,0.332514 2.508531,0.285695 h 1.976034 c 0.400426,-0.03431 0.70437,-0.162 0.910251,-0.381193 l 0.06801,-0.08619 c 0.04613,-0.06969 0.08937,-0.176898 0.128642,-0.321341 0.04007,-0.144179 0.06063,-0.303254 0.06063,-0.476692 -0.01134,-0.49691 0.02583,-0.944607 0.111244,-1.343623 0.08541,-0.397954 0.18321,-0.69828 0.29261,-0.900981 0.109134,-0.2027 0.23145,-0.372948 0.369583,-0.511273 0.136814,-0.139124 0.234878,-0.222385 0.292345,-0.251381 0.05667,-0.02926 0.102022,-0.04894 0.137078,-0.06145 0.274948,-0.09231 0.598136,-0.0019 0.970882,0.269203 0.371957,0.272395 0.720979,0.606772 1.048385,1.005788 0.326352,0.399017 0.718869,0.84698 1.175972,1.343623 0.459211,0.496643 0.859902,0.866665 1.202597,1.109799 l 0.344014,0.207755 c 0.229606,0.139389 0.527224,0.266011 0.893907,0.38146 0.366421,0.116247 0.68671,0.145508 0.961656,0.08725 l 4.399155,-0.06969 c 0.434432,0 0.773173,-0.07262 1.01306,-0.217066 0.240941,-0.144443 0.383291,-0.303518 0.429423,-0.475893 0.0464,-0.173706 0.04851,-0.370022 0.0092,-0.59028 -0.04113,-0.219193 -0.08119,-0.372948 -0.12047,-0.459401 -0.04006,-0.08725 -0.07724,-0.158808 -0.112035,-0.217065 -0.572566,-1.040105 -1.667345,-2.317225 -3.281968,-3.831095 l -0.03374,-0.03538 -0.01767,-0.01676 -0.0174,-0.01756 h -0.0166 c -0.733105,-0.705463 -1.197588,-1.179495 -1.392133,-1.421565 -0.35535,-0.462328 -0.435487,-0.931039 -0.240942,-1.404805 0.137869,-0.3585827 0.652703,-1.1148527 1.546611,-2.2714697 0.469492,-0.612093 0.84224,-1.103681 1.116132,-1.473436 1.982361,-2.659049 2.841209,-4.358063 2.577596,-5.097841 l -0.102008,-0.172641 c -0.06906,-0.103742 -0.245951,-0.19950804 -0.532233,-0.28569604 -0.286283,-0.08725 -0.652966,-0.101878 -1.099788,-0.04362 l -4.949048,0.03432 c -0.07935,-0.02793 -0.194546,-0.02607 -0.342959,0.0093 -0.149204,0.03432 -0.224334,0.05188 -0.224334,0.05188 l -0.08541,0.04389 -0.06801,0.05188 c -0.05773,0.03432 -0.12047,0.09444 -0.189536,0.181685 -0.06801,0.08646 -0.12548,0.18807 -0.170821,0.303519 -0.539613,1.398688 -1.151193,2.698685 -1.83922,3.900789 -0.424151,0.716901 -0.813505,1.338304 -1.168591,1.864207 -0.355349,0.525639 -0.652966,0.913483 -0.892852,1.161672 -0.240942,0.248454 -0.458158,0.447963 -0.652968,0.597461 -0.195599,0.150829 -0.34375,0.214139 -0.446821,0.191262 -0.103074,-0.02395 -0.200872,-0.04682 -0.292346,-0.06969 -0.160803,-0.103741 -0.289445,-0.245262 -0.386192,-0.42482 -0.0978,-0.17876 -0.163702,-0.404336 -0.197708,-0.676466 -0.03401,-0.271332 -0.05456,-0.505156 -0.0609,-0.701472 -0.0051,-0.196316 -0.0021,-0.47483 0.0092,-0.832349 0.01134,-0.358583 0.01767,-0.601718 0.01767,-0.728339 0,-0.439716 0.0081,-0.916675 0.02478,-1.430874 0.0174,-0.514466 0.0319,-0.92173 0.04323,-1.222057 0.01134,-0.300326 0.0174,-0.618209 0.0174,-0.953916 0,-0.334643 -0.02056,-0.597462 -0.06063,-0.788724 -0.03928,-0.190198 -0.09991,-0.375075 -0.18031,-0.55489904 -0.0804,-0.178759 -0.197709,-0.317883 -0.352185,-0.415509 -0.154476,-0.09869 -0.345859,-0.176632 -0.574674,-0.234889 -0.607361,-0.138326 -1.380799,-0.213074 -2.319783,-0.225577 -0.103337,-0.001000001 -0.203245,-0.001600001 -0.302891,-0.0019000012 H 15.344539 C 13.517709,0.00451526 12.324865,0.14419326 11.7697,0.41871826 c -0.240942,0.12662 -0.458158,0.300325 -0.652704,0.519519 -0.20588,0.25457304 -0.234877,0.39369704 -0.08646,0.41657404 0.687763,0.104012 1.173863,0.352465 1.4612,0.745098 l 0.102805,0.208818 c 0.0804,0.149764 0.160803,0.415776 0.24015,0.79697 0.08014,0.38146 0.131805,0.803354 0.154212,1.265681 0.05773,0.843788 0.05773,1.566009 0,2.167727 -0.05641,0.600387 -0.11098,1.069099 -0.162647,1.403741 -0.05141,0.335707 -0.128643,0.606772 -0.231715,0.81559 -0.102805,0.208021 -0.171876,0.334643 -0.206936,0.38146 -0.03401,0.04576 -0.06274,0.07475 -0.08541,0.08619 -0.149204,0.05826 -0.303681,0.08725 -0.464483,0.08725 -0.159486,0 -0.354294,-0.08087 -0.583901,-0.243135 C 11.025206,8.9081823 10.787429,8.6857973 10.541216,8.4019633 10.29536,8.1195033 10.017249,7.7236783 9.707242,7.2145333 9.3982888,6.7061853 9.0782641,6.1057973 8.745586,5.4115083 L 8.4706389,4.9087473 C 8.2985002,4.5855433 8.0638858,4.1147033 7.766268,3.4954293 7.4686503,2.8772193 7.2050385,2.2797573 6.9764869,1.7009173 6.8847501,1.4588463 6.7468811,1.2739693 6.5634073,1.1460173 l -0.085411,-0.05188 c -0.05773,-0.04575 -0.1492043,-0.0947 -0.2749472,-0.14763304 -0.1265335,-0.05187 -0.2572851,-0.08938 -0.3954176,-0.112257 l -4.7078437,0.03432 c -0.48082793,0 -0.80744298,0.110129 -0.97931789,0.32932204 l -0.069066,0.104017 C 0.01739839,1.3601573 0,1.4524623 0,1.5793503 c 0,0.127952 0.03400593,0.283567 0.10307223,0.468711 0.68776325,1.62932 1.43431197,3.201446 2.24254577,4.715317 z"
     id="path2"
     inkscape:connector-curvature="0"
     style="stroke-width:0.26480883" /></svg>